<svg width="129" height="76" viewBox="0 0 129 76" fill="none" xmlns="http://www.w3.org/2000/svg">
<path d="M34.4336 49.4827C29.6374 49.4827 26.6054 47.5001 25.3374 43.5349C23.5733 45.4074 21.8643 46.8943 20.2105 47.9958C18.6118 49.0422 16.3791 49.5654 13.5124 49.5654C10.3149 49.5654 7.69635 48.6567 5.65661 46.8393C3.672 45.0219 2.67969 42.4059 2.67969 38.9914C2.67969 37.0088 3.12071 35.219 4.00276 33.6219C4.88482 32.0248 6.48353 30.5378 8.79892 29.161C11.1143 27.7842 14.3945 26.49 18.6393 25.2784C19.4663 25.003 20.431 24.7277 21.5336 24.4523C22.6361 24.177 23.7663 23.9016 24.9239 23.6262V20.9001C24.9239 17.2103 24.4554 14.7045 23.5182 13.3828C22.6361 12.061 20.872 11.4001 18.2259 11.4001C17.84 11.4001 17.4816 11.4001 17.1509 11.4001C16.8201 11.4001 16.4342 11.4277 15.9932 11.4828L15.5797 15.1175C15.5246 17.8161 14.8906 19.7712 13.6778 20.9828C12.5201 22.1943 11.1419 22.8001 9.54315 22.8001C6.5111 22.8001 4.6643 21.4233 4.00276 18.6697C4.22328 15.2552 5.95982 12.4741 9.21238 10.3262C12.4649 8.17841 17.0682 7.10449 23.022 7.10449C28.3143 7.10449 32.0906 8.31609 34.3509 10.7393C36.6663 13.1625 37.8239 17.1552 37.8239 22.7175V41.2219C37.8239 42.819 38.4304 43.6175 39.6432 43.6175C40.0842 43.6175 40.4977 43.5074 40.8836 43.2871C41.2695 43.0117 41.6829 42.5161 42.124 41.8001L44.3566 43.2871C43.3643 45.49 42.0688 47.0871 40.4701 48.0784C38.9265 49.0146 36.9143 49.4827 34.4336 49.4827ZM14.9182 36.8436C14.9182 38.8813 15.3868 40.3958 16.3239 41.3871C17.3163 42.3784 18.5015 42.8741 19.8797 42.8741C20.4861 42.8741 21.1201 42.7364 21.7816 42.461C22.4432 42.1856 23.4906 41.5523 24.9239 40.561V27.1784C24.2073 27.3987 23.4906 27.6465 22.7739 27.9219C22.1124 28.1422 21.5336 28.3625 21.0374 28.5828C19.163 29.3538 17.6746 30.4552 16.572 31.8871C15.4695 33.2639 14.9182 34.9161 14.9182 36.8436ZM66.9523 49.5654C63.2036 49.5654 59.7581 48.7943 56.6158 47.2523C53.5286 45.6552 51.0478 43.2871 49.1735 40.148C47.2991 37.0088 46.3619 33.1262 46.3619 28.5001C46.3619 23.9842 47.3542 20.1291 49.3388 16.9349C51.3786 13.7407 54.0799 11.3175 57.4427 9.66536C60.8606 7.95812 64.6094 7.10449 68.6889 7.10449C71.6106 7.10449 74.2017 7.65522 76.4619 8.75667C78.7222 9.85812 80.5139 11.3175 81.8369 13.1349C83.2151 14.9523 83.9869 16.9625 84.1523 19.1654C83.2703 22.0291 81.3959 23.461 78.5292 23.461C76.9305 23.461 75.5247 22.8828 74.3119 21.7262C73.0991 20.5697 72.41 18.532 72.2446 15.6132L71.6658 11.4828C71.4453 11.4277 71.1972 11.4001 70.9215 11.4001C70.6459 11.4001 70.3703 11.4001 70.0946 11.4001C68.551 11.4001 67.0074 11.9233 65.4638 12.9697C63.9203 14.0161 62.6523 15.6683 61.66 17.9262C60.6677 20.1842 60.1715 23.1857 60.1715 26.9306C60.1715 31.6668 61.219 35.3291 63.3139 37.9175C65.4639 40.4509 68.2754 41.7175 71.7485 41.7175C73.7331 41.7175 75.4696 41.3045 76.9581 40.4784C78.4465 39.5972 79.7972 38.4683 81.01 37.0914L83.9042 39.6523C82.3055 43.0117 80.0453 45.5175 77.1235 47.1697C74.2568 48.7668 70.8664 49.5654 66.9523 49.5654ZM108.7 11.4001C107.157 11.4001 105.723 12.3639 104.4 14.2914C103.132 16.1639 102.416 19.6335 102.25 24.7001H109.279C111.264 24.7001 112.587 24.3146 113.248 23.5436C113.965 22.7175 114.323 21.3683 114.323 19.4958C114.323 16.7422 113.772 14.7045 112.669 13.3828C111.567 12.061 110.244 11.4001 108.7 11.4001ZM108.866 49.5654C104.841 49.5654 101.285 48.7393 98.1983 47.0871C95.1111 45.3799 92.6855 42.9567 90.9214 39.8175C89.1573 36.6233 88.2752 32.8233 88.2752 28.4175C88.2752 23.7914 89.2951 19.9088 91.3348 16.7697C93.4297 13.5755 96.1034 11.1799 99.356 9.58275C102.609 7.93058 105.999 7.10449 109.527 7.10449C113.166 7.10449 116.253 7.87551 118.789 9.41754C121.38 10.9596 123.337 13.0523 124.66 15.6958C125.983 18.2842 126.644 21.2581 126.644 24.6175C126.644 26.2146 126.479 27.6741 126.148 28.9958H102.25C102.526 33.3465 103.711 36.5683 105.806 38.661C107.956 40.6987 110.464 41.7175 113.331 41.7175C115.591 41.7175 117.521 41.3045 119.119 40.4784C120.718 39.5972 122.124 38.5233 123.337 37.2567L126.231 39.9001C124.522 43.1494 122.207 45.5726 119.285 47.1697C116.363 48.7668 112.89 49.5654 108.866 49.5654Z" fill="white"/>
<path d="M13.4741 66.1791C12.9625 66.1791 12.5469 66.0513 12.2272 65.7959C11.9075 65.5403 11.6901 65.189 11.575 64.7418C11.1018 65.2273 10.6734 65.5978 10.2898 65.8533C9.9061 66.096 9.40735 66.2175 8.79349 66.2175C8.07734 66.2175 7.46988 66.013 6.97113 65.6042C6.48517 65.1827 6.24219 64.5821 6.24219 63.8028C6.24219 63.394 6.3381 63.0171 6.52993 62.6722C6.72176 62.3145 7.06065 61.9823 7.54662 61.6756C8.04536 61.369 8.75514 61.0689 9.6759 60.7751C9.93167 60.6856 10.2194 60.5962 10.5391 60.5067C10.8588 60.4172 11.185 60.3279 11.5174 60.2384V59.7018C11.5174 58.8076 11.3896 58.2072 11.1338 57.9006C10.8908 57.5811 10.456 57.4214 9.82937 57.4214C9.71427 57.4214 9.58639 57.4278 9.44572 57.4406C9.31783 57.4534 9.18355 57.4725 9.04288 57.4981L8.81268 58.5521C8.76152 59.0119 8.62724 59.3505 8.40984 59.5677C8.19243 59.7849 7.92387 59.8935 7.60417 59.8935C6.99032 59.8935 6.63223 59.606 6.52993 59.0312C6.64502 58.2646 7.05425 57.6514 7.75762 57.1915C8.47378 56.7315 9.41374 56.5016 10.5775 56.5016C11.6901 56.5016 12.5022 56.7699 13.0137 57.3065C13.5252 57.8302 13.781 58.7181 13.781 59.9702V64.1477C13.781 64.7227 13.9665 65.0101 14.3373 65.0101C14.5803 65.0101 14.8041 64.8696 15.0087 64.5886L15.45 64.9717C15.2197 65.4061 14.9447 65.7192 14.6251 65.9108C14.3182 66.0897 13.9345 66.1791 13.4741 66.1791ZM8.48657 63.4004C8.48657 63.8986 8.61445 64.2628 8.87023 64.4927C9.13879 64.7099 9.4649 64.8185 9.84855 64.8185C10.0659 64.8185 10.2834 64.7674 10.5008 64.6651C10.7182 64.563 11.0571 64.3522 11.5174 64.0327V61.005C11.2489 61.0943 10.9931 61.1775 10.7501 61.2541C10.5199 61.3307 10.3217 61.401 10.1555 61.4648C9.51604 61.7204 9.07484 62.0142 8.83186 62.3464C8.60167 62.6785 8.48657 63.0299 8.48657 63.4004ZM27.411 66.2175C26.8228 66.2175 26.2792 66.1471 25.7804 66.0067C25.2945 65.8789 24.8085 65.6808 24.3226 65.4126L24.3034 63.1896H25.5886L25.934 64.9717C26.3943 65.1634 26.8931 65.2592 27.4301 65.2592C28.0823 65.2592 28.5684 65.1442 28.888 64.9143C29.2078 64.6844 29.3676 64.365 29.3676 63.9562C29.3676 63.5984 29.2397 63.311 28.9839 63.0938C28.7281 62.8638 28.2935 62.6466 27.6796 62.4422L26.7204 62.1165C26.0043 61.8864 25.4352 61.5479 25.0132 61.1008C24.6039 60.6536 24.3993 60.0915 24.3993 59.4144C24.3993 58.8778 24.5399 58.3924 24.8213 57.958C25.1026 57.5108 25.5118 57.1596 26.049 56.904C26.599 56.6357 27.2639 56.5016 28.044 56.5016C28.5939 56.5016 29.0927 56.5718 29.5403 56.7124C30.0006 56.8401 30.4546 57.0318 30.9023 57.2873L30.8063 59.2994H29.5403L29.1949 57.6898C28.8369 57.5364 28.4405 57.4597 28.0057 57.4597C27.4941 57.4597 27.0977 57.5683 26.8163 57.7855C26.535 58.0027 26.3943 58.2965 26.3943 58.667C26.3943 59.0119 26.5094 59.2931 26.7395 59.5102C26.9825 59.7146 27.4301 59.9254 28.0823 60.1426L28.8497 60.3726C29.7833 60.6919 30.4483 61.088 30.8447 61.5607C31.2412 62.0335 31.4393 62.602 31.4393 63.2663C31.4393 64.1222 31.0876 64.8313 30.3843 65.3934C29.6937 65.9428 28.7026 66.2175 27.411 66.2175ZM43.9914 66.2175C43.4031 66.2175 42.8596 66.1471 42.3608 66.0067C41.8748 65.8789 41.3889 65.6808 40.9029 65.4126L40.8838 63.1896H42.169L42.5143 64.9717C42.9746 65.1634 43.4734 65.2592 44.0105 65.2592C44.6628 65.2592 45.1488 65.1442 45.4684 64.9143C45.7881 64.6844 45.948 64.365 45.948 63.9562C45.948 63.5984 45.8201 63.311 45.5643 63.0938C45.3086 62.8638 44.8738 62.6466 44.26 62.4422L43.3007 62.1165C42.5846 61.8864 42.0156 61.5479 41.5935 61.1008C41.1842 60.6536 40.9797 60.0915 40.9797 59.4144C40.9797 58.8778 41.1203 58.3924 41.4017 57.958C41.683 57.5108 42.0923 57.1596 42.6294 56.904C43.1793 56.6357 43.8443 56.5016 44.6244 56.5016C45.1743 56.5016 45.673 56.5718 46.1207 56.7124C46.581 56.8401 47.035 57.0318 47.4826 57.2873L47.3867 59.2994H46.1207L45.7753 57.6898C45.4172 57.5364 45.0209 57.4597 44.586 57.4597C44.0745 57.4597 43.6781 57.5683 43.3967 57.7855C43.1154 58.0027 42.9746 58.2965 42.9746 58.667C42.9746 59.0119 43.0897 59.2931 43.3199 59.5102C43.563 59.7146 44.0105 59.9254 44.6628 60.1426L45.4301 60.3726C46.3637 60.6919 47.0286 61.088 47.425 61.5607C47.8215 62.0335 48.0197 62.602 48.0197 63.2663C48.0197 64.1222 47.668 64.8313 46.9647 65.3934C46.2741 65.9428 45.283 66.2175 43.9914 66.2175ZM64.2375 66.1216L64.0839 64.4352C63.1505 65.6234 62.0633 66.2175 60.823 66.2175C60.0301 66.2175 59.3906 65.9619 58.9046 65.4509C58.4315 64.9271 58.2012 64.0327 58.214 62.768L58.2908 58.0347L57.0439 57.7663V57.019L60.4008 56.6165L60.6311 56.8273L60.5352 59.5102V62.6913C60.5352 63.4068 60.6438 63.9114 60.8613 64.2053C61.0914 64.4863 61.4175 64.6268 61.8395 64.6268C62.1977 64.6268 62.5621 64.5247 62.933 64.3202C63.3167 64.1158 63.6811 63.8539 64.0265 63.5345L64.0839 58.0347L62.8755 57.7663V57.0573L66.1556 56.6165L66.4051 56.8273L66.3475 59.5102V64.9143L67.5177 65.1634V65.9491L64.2375 66.1216ZM76.7586 65.9491V65.1634L77.9863 64.9334C77.999 64.448 78.0054 63.9306 78.0054 63.3812C78.0054 62.8191 78.0054 62.3336 78.0054 61.9248V60.9092C78.0054 60.3853 77.999 59.9702 77.9863 59.6636C77.9863 59.3441 77.9735 58.9928 77.9478 58.6095L76.6051 58.4371V57.7089L79.8086 56.5016L80.1155 56.6932L80.3073 58.9545C80.6014 58.1624 80.9979 57.5555 81.4967 57.134C81.9955 56.7124 82.4941 56.5016 82.9929 56.5016C83.3383 56.5016 83.6515 56.5909 83.9328 56.7699C84.2271 56.9488 84.4189 57.2042 84.5084 57.5364C84.4956 58.0091 84.3805 58.3796 84.1631 58.6479C83.9456 58.9034 83.6452 59.0312 83.2615 59.0312C82.8011 59.0312 82.3664 58.8011 81.957 58.3413L81.7845 58.1496C81.1067 58.7118 80.6207 59.5039 80.3265 60.5259V61.9248C80.3265 62.3208 80.3265 62.7936 80.3265 63.343C80.3265 63.8795 80.333 64.3841 80.3458 64.8568L81.9187 65.1634V65.9491H76.7586ZM97.6234 57.4214C97.3164 57.4214 97.0095 57.5236 96.7026 57.728C96.4085 57.9197 96.1527 58.2391 95.9353 58.6862C95.7307 59.1334 95.6028 59.7403 95.5517 60.5067H98.1797C98.6401 60.5067 98.947 60.4109 99.1005 60.2192C99.2539 60.0276 99.3307 59.7594 99.3307 59.4144C99.3307 58.8267 99.1645 58.3476 98.8319 57.9771C98.4994 57.6066 98.0966 57.4214 97.6234 57.4214ZM97.6234 66.2175C96.7282 66.2175 95.9417 66.0258 95.2639 65.6425C94.5861 65.2592 94.0555 64.7099 93.6718 63.9945C93.2881 63.2663 93.0962 62.4038 93.0962 61.4074C93.0962 60.3853 93.3137 59.5102 93.7486 58.782C94.1961 58.041 94.7716 57.4788 95.4749 57.0957C96.1911 56.6996 96.952 56.5016 97.7578 56.5016C98.5122 56.5016 99.1708 56.6613 99.7335 56.9807C100.296 57.3 100.731 57.7472 101.038 58.3221C101.358 58.897 101.517 59.5741 101.517 60.3533C101.517 60.7623 101.479 61.1136 101.402 61.4074H95.5325C95.5836 62.5061 95.8714 63.3302 96.3957 63.8795C96.9329 64.4288 97.6042 64.7035 98.4099 64.7035C98.9726 64.7035 99.4458 64.5949 99.8295 64.3778C100.226 64.1477 100.584 63.8539 100.904 63.4962L101.46 63.9945C101.089 64.6971 100.578 65.2464 99.9254 65.6425C99.2859 66.0258 98.5187 66.2175 97.6234 66.2175ZM113.481 61.4074C113.481 62.57 113.698 63.4388 114.133 64.0136C114.581 64.5758 115.143 64.8568 115.821 64.8568C116.154 64.8568 116.454 64.7929 116.723 64.6651C117.004 64.5247 117.266 64.3267 117.509 64.0712V58.5712C116.946 58.0857 116.39 57.843 115.84 57.843C115.201 57.843 114.645 58.1305 114.171 58.7053C113.711 59.2803 113.481 60.181 113.481 61.4074ZM117.739 66.1599L117.586 64.9526C117.228 65.3615 116.831 65.6745 116.397 65.8916C115.962 66.1088 115.463 66.2175 114.9 66.2175C114.146 66.2175 113.474 66.0258 112.886 65.6425C112.311 65.2592 111.857 64.7099 111.524 63.9945C111.192 63.2791 111.025 62.4294 111.025 61.4457C111.025 60.4365 111.211 59.5613 111.582 58.8204C111.965 58.0794 112.471 57.5108 113.097 57.1148C113.737 56.706 114.434 56.5016 115.188 56.5016C115.674 56.5016 116.109 56.5909 116.493 56.7699C116.889 56.9488 117.26 57.2426 117.605 57.6514V53.7038L116.109 53.5121V52.7648L119.619 51.9023L119.907 52.0749L119.83 54.7768V64.9526L121.077 65.1634V65.9491L117.739 66.1599Z" fill="white"/>
</svg>
