<svg width="125" height="60" viewBox="0 0 125 60" fill="none" xmlns="http://www.w3.org/2000/svg">
<path d="M32.4336 42.4818C27.6374 42.4818 24.6054 40.4992 23.3374 36.534C21.5733 38.4064 19.8643 39.8934 18.2105 40.9948C16.6118 42.0412 14.3791 42.5644 11.5124 42.5644C8.31494 42.5644 5.69635 41.6557 3.65661 39.8383C1.672 38.0209 0.679688 35.405 0.679688 31.9905C0.679688 30.0079 1.12071 28.218 2.00276 26.6209C2.88482 25.0238 4.48353 23.5368 6.79892 22.16C9.1143 20.7832 12.3945 19.489 16.6393 18.2774C17.4663 18.0021 18.431 17.7267 19.5336 17.4513C20.6361 17.176 21.7663 16.9006 22.9239 16.6253V13.8992C22.9239 10.2093 22.4554 7.70352 21.5182 6.38178C20.6361 5.06004 18.872 4.39917 16.2259 4.39917C15.84 4.39917 15.4816 4.39917 15.1509 4.39917C14.8201 4.39917 14.4342 4.4267 13.9932 4.48178L13.5797 8.11656C13.5246 10.8151 12.8906 12.7702 11.6778 13.9818C10.5201 15.1934 9.14187 15.7992 7.54315 15.7992C4.5111 15.7992 2.6643 14.4224 2.00276 11.6687C2.22328 8.25424 3.95982 5.47308 7.21238 3.32525C10.4649 1.17743 15.0682 0.103516 21.022 0.103516C26.3143 0.103516 30.0906 1.31511 32.3509 3.7383C34.6663 6.16149 35.8239 10.1542 35.8239 15.7166V34.2209C35.8239 35.818 36.4304 36.6166 37.6432 36.6166C38.0842 36.6166 38.4977 36.5064 38.8836 36.2861C39.2695 36.0108 39.6829 35.5151 40.124 34.7992L42.3566 36.2861C41.3643 38.489 40.0688 40.0861 38.4701 41.0774C36.9265 42.0137 34.9143 42.4818 32.4336 42.4818ZM12.9182 29.8426C12.9182 31.8803 13.3868 33.3948 14.3239 34.3861C15.3163 35.3774 16.5015 35.8731 17.8797 35.8731C18.4861 35.8731 19.1201 35.7354 19.7816 35.46C20.4432 35.1847 21.4906 34.5513 22.9239 33.56V20.1774C22.2073 20.3977 21.4906 20.6455 20.7739 20.9209C20.1124 21.1412 19.5336 21.3615 19.0374 21.5818C17.163 22.3528 15.6746 23.4542 14.572 24.8861C13.4695 26.2629 12.9182 27.9151 12.9182 29.8426ZM64.9523 42.5644C61.2036 42.5644 57.7581 41.7934 54.6158 40.2513C51.5286 38.6542 49.0478 36.2861 47.1735 33.147C45.2991 30.0079 44.3619 26.1253 44.3619 21.4992C44.3619 16.9832 45.3542 13.1282 47.3388 9.93395C49.3786 6.73975 52.0799 4.31656 55.4427 2.66438C58.8606 0.957139 62.6094 0.103516 66.6889 0.103516C69.6106 0.103516 72.2017 0.65424 74.4619 1.75569C76.7222 2.85714 78.5139 4.31656 79.8369 6.13395C81.2151 7.95134 81.9869 9.96149 82.1523 12.1644C81.2703 15.0282 79.3959 16.46 76.5292 16.46C74.9305 16.46 73.5247 15.8818 72.3119 14.7253C71.0991 13.5687 70.41 11.5311 70.2446 8.61221L69.6658 4.48178C69.4453 4.4267 69.1972 4.39917 68.9215 4.39917C68.6459 4.39917 68.3703 4.39917 68.0946 4.39917C66.551 4.39917 65.0074 4.92236 63.4638 5.96873C61.9203 7.01511 60.6523 8.66728 59.66 10.9253C58.6677 13.1832 58.1715 16.1847 58.1715 19.9296C58.1715 24.6658 59.219 28.3282 61.3139 30.9166C63.4639 33.4499 66.2754 34.7166 69.7485 34.7166C71.7331 34.7166 73.4696 34.3035 74.9581 33.4774C76.4465 32.5963 77.7972 31.4673 79.01 30.0905L81.9042 32.6513C80.3055 36.0108 78.0453 38.5166 75.1235 40.1687C72.2568 41.7658 68.8664 42.5644 64.9523 42.5644ZM106.7 4.39917C105.157 4.39917 103.723 5.36294 102.4 7.29047C101.132 9.16294 100.416 12.6325 100.25 17.6992H107.279C109.264 17.6992 110.587 17.3137 111.248 16.5426C111.965 15.7166 112.323 14.3673 112.323 12.4948C112.323 9.7412 111.772 7.70352 110.669 6.38178C109.567 5.06004 108.244 4.39917 106.7 4.39917ZM106.866 42.5644C102.841 42.5644 99.2855 41.7383 96.1983 40.0861C93.1111 38.3789 90.6855 35.9557 88.9214 32.8166C87.1573 29.6224 86.2752 25.8224 86.2752 21.4166C86.2752 16.7905 87.2951 12.9079 89.3348 9.76873C91.4297 6.57453 94.1034 4.17888 97.356 2.58178C100.609 0.929603 103.999 0.103516 107.527 0.103516C111.166 0.103516 114.253 0.874531 116.789 2.41656C119.38 3.95859 121.337 6.05134 122.66 8.69482C123.983 11.2832 124.644 14.2571 124.644 17.6166C124.644 19.2137 124.479 20.6731 124.148 21.9948H100.25C100.526 26.3455 101.711 29.5673 103.806 31.66C105.956 33.6977 108.464 34.7166 111.331 34.7166C113.591 34.7166 115.521 34.3035 117.119 33.4774C118.718 32.5963 120.124 31.5224 121.337 30.2557L124.231 32.8992C122.522 36.1484 120.207 38.5716 117.285 40.1687C114.363 41.7658 110.89 42.5644 106.866 42.5644Z" fill="#023A20"/>
<path d="M11.4741 59.1791C10.9625 59.1791 10.5469 59.0513 10.2272 58.7959C9.90751 58.5403 9.69009 58.189 9.575 57.7418C9.10182 58.2273 8.67341 58.5978 8.28976 58.8533C7.9061 59.096 7.40735 59.2175 6.79349 59.2175C6.07734 59.2175 5.46988 59.013 4.97113 58.6042C4.48517 58.1827 4.24219 57.5821 4.24219 56.8028C4.24219 56.394 4.3381 56.0171 4.52993 55.6722C4.72176 55.3145 5.06065 54.9823 5.54662 54.6756C6.04536 54.369 6.75514 54.0689 7.6759 53.7751C7.93167 53.6856 8.21941 53.5962 8.53913 53.5067C8.85884 53.4172 9.18495 53.3279 9.51745 53.2384V52.7018C9.51745 51.8076 9.38956 51.2072 9.1338 50.9006C8.89082 50.5811 8.45601 50.4214 7.82937 50.4214C7.71427 50.4214 7.58639 50.4278 7.44572 50.4406C7.31783 50.4534 7.18355 50.4725 7.04288 50.4981L6.81268 51.5521C6.76152 52.0119 6.62724 52.3505 6.40984 52.5677C6.19243 52.7849 5.92387 52.8935 5.60417 52.8935C4.99032 52.8935 4.63223 52.606 4.52993 52.0312C4.64502 51.2646 5.05425 50.6514 5.75762 50.1915C6.47378 49.7315 7.41374 49.5016 8.5775 49.5016C9.69009 49.5016 10.5022 49.7699 11.0137 50.3065C11.5252 50.8302 11.781 51.7181 11.781 52.9702V57.1477C11.781 57.7227 11.9665 58.0101 12.3373 58.0101C12.5803 58.0101 12.8041 57.8696 13.0087 57.5886L13.45 57.9717C13.2197 58.4061 12.9447 58.7192 12.6251 58.9108C12.3182 59.0897 11.9345 59.1791 11.4741 59.1791ZM6.48657 56.4004C6.48657 56.8986 6.61445 57.2628 6.87023 57.4927C7.13879 57.7099 7.4649 57.8185 7.84855 57.8185C8.06595 57.8185 8.28336 57.7674 8.50076 57.6651C8.71817 57.563 9.05707 57.3522 9.51745 57.0327V54.005C9.24889 54.0943 8.99312 54.1775 8.75014 54.2541C8.51994 54.3307 8.32173 54.401 8.15548 54.4648C7.51604 54.7204 7.07484 55.0142 6.83186 55.3464C6.60167 55.6785 6.48657 56.0299 6.48657 56.4004ZM25.411 59.2175C24.8228 59.2175 24.2792 59.1471 23.7804 59.0067C23.2945 58.8789 22.8085 58.6808 22.3226 58.4126L22.3034 56.1896H23.5886L23.934 57.9717C24.3943 58.1634 24.8931 58.2592 25.4301 58.2592C26.0823 58.2592 26.5684 58.1442 26.888 57.9143C27.2078 57.6844 27.3676 57.365 27.3676 56.9562C27.3676 56.5984 27.2397 56.311 26.9839 56.0938C26.7281 55.8638 26.2935 55.6466 25.6796 55.4422L24.7204 55.1165C24.0043 54.8864 23.4352 54.5479 23.0132 54.1008C22.6039 53.6536 22.3993 53.0915 22.3993 52.4144C22.3993 51.8778 22.5399 51.3924 22.8213 50.958C23.1026 50.5108 23.5118 50.1596 24.049 49.904C24.599 49.6357 25.2639 49.5016 26.044 49.5016C26.5939 49.5016 27.0927 49.5718 27.5403 49.7124C28.0006 49.8401 28.4546 50.0318 28.9023 50.2873L28.8063 52.2994H27.5403L27.1949 50.6898C26.8369 50.5364 26.4405 50.4597 26.0057 50.4597C25.4941 50.4597 25.0977 50.5683 24.8163 50.7855C24.535 51.0027 24.3943 51.2965 24.3943 51.667C24.3943 52.0119 24.5094 52.2931 24.7395 52.5102C24.9825 52.7146 25.4301 52.9254 26.0823 53.1426L26.8497 53.3726C27.7833 53.6919 28.4483 54.088 28.8447 54.5607C29.2412 55.0335 29.4393 55.602 29.4393 56.2663C29.4393 57.1222 29.0876 57.8313 28.3843 58.3934C27.6937 58.9428 26.7026 59.2175 25.411 59.2175ZM41.9914 59.2175C41.4031 59.2175 40.8596 59.1471 40.3608 59.0067C39.8748 58.8789 39.3889 58.6808 38.9029 58.4126L38.8838 56.1896H40.169L40.5143 57.9717C40.9746 58.1634 41.4734 58.2592 42.0105 58.2592C42.6628 58.2592 43.1488 58.1442 43.4684 57.9143C43.7881 57.6844 43.948 57.365 43.948 56.9562C43.948 56.5984 43.8201 56.311 43.5643 56.0938C43.3086 55.8638 42.8738 55.6466 42.26 55.4422L41.3007 55.1165C40.5846 54.8864 40.0156 54.5479 39.5935 54.1008C39.1842 53.6536 38.9797 53.0915 38.9797 52.4144C38.9797 51.8778 39.1203 51.3924 39.4017 50.958C39.683 50.5108 40.0923 50.1596 40.6294 49.904C41.1793 49.6357 41.8443 49.5016 42.6244 49.5016C43.1743 49.5016 43.673 49.5718 44.1207 49.7124C44.581 49.8401 45.035 50.0318 45.4826 50.2873L45.3867 52.2994H44.1207L43.7753 50.6898C43.4172 50.5364 43.0209 50.4597 42.586 50.4597C42.0745 50.4597 41.6781 50.5683 41.3967 50.7855C41.1154 51.0027 40.9746 51.2965 40.9746 51.667C40.9746 52.0119 41.0897 52.2931 41.3199 52.5102C41.563 52.7146 42.0105 52.9254 42.6628 53.1426L43.4301 53.3726C44.3637 53.6919 45.0286 54.088 45.425 54.5607C45.8215 55.0335 46.0197 55.602 46.0197 56.2663C46.0197 57.1222 45.668 57.8313 44.9647 58.3934C44.2741 58.9428 43.283 59.2175 41.9914 59.2175ZM62.2375 59.1216L62.0839 57.4352C61.1505 58.6234 60.0633 59.2175 58.823 59.2175C58.0301 59.2175 57.3906 58.9619 56.9046 58.4509C56.4315 57.9271 56.2012 57.0327 56.214 55.768L56.2908 51.0347L55.0439 50.7663V50.019L58.4008 49.6165L58.6311 49.8273L58.5352 52.5102V55.6913C58.5352 56.4068 58.6438 56.9114 58.8613 57.2053C59.0914 57.4863 59.4175 57.6268 59.8395 57.6268C60.1977 57.6268 60.5621 57.5247 60.933 57.3202C61.3167 57.1158 61.6811 56.8539 62.0265 56.5345L62.0839 51.0347L60.8755 50.7663V50.0573L64.1556 49.6165L64.4051 49.8273L64.3475 52.5102V57.9143L65.5177 58.1634V58.9491L62.2375 59.1216ZM74.7586 58.9491V58.1634L75.9863 57.9334C75.999 57.448 76.0054 56.9306 76.0054 56.3812C76.0054 55.8191 76.0054 55.3336 76.0054 54.9248V53.9092C76.0054 53.3853 75.999 52.9702 75.9863 52.6636C75.9863 52.3441 75.9735 51.9928 75.9478 51.6095L74.6051 51.4371V50.7089L77.8086 49.5016L78.1155 49.6932L78.3073 51.9545C78.6014 51.1624 78.9979 50.5555 79.4967 50.134C79.9955 49.7124 80.4941 49.5016 80.9929 49.5016C81.3383 49.5016 81.6515 49.5909 81.9328 49.7699C82.2271 49.9488 82.4189 50.2042 82.5084 50.5364C82.4956 51.0091 82.3805 51.3796 82.1631 51.6479C81.9456 51.9034 81.6452 52.0312 81.2615 52.0312C80.8011 52.0312 80.3664 51.8011 79.957 51.3413L79.7845 51.1496C79.1067 51.7118 78.6207 52.5039 78.3265 53.5259V54.9248C78.3265 55.3208 78.3265 55.7936 78.3265 56.343C78.3265 56.8795 78.333 57.3841 78.3458 57.8568L79.9187 58.1634V58.9491H74.7586ZM95.6234 50.4214C95.3164 50.4214 95.0095 50.5236 94.7026 50.728C94.4085 50.9197 94.1527 51.2391 93.9353 51.6862C93.7307 52.1334 93.6028 52.7403 93.5517 53.5067H96.1797C96.6401 53.5067 96.947 53.4109 97.1005 53.2192C97.2539 53.0276 97.3307 52.7594 97.3307 52.4144C97.3307 51.8267 97.1645 51.3476 96.8319 50.9771C96.4994 50.6066 96.0966 50.4214 95.6234 50.4214ZM95.6234 59.2175C94.7282 59.2175 93.9417 59.0258 93.2639 58.6425C92.5861 58.2592 92.0555 57.7099 91.6718 56.9945C91.2881 56.2663 91.0962 55.4038 91.0962 54.4074C91.0962 53.3853 91.3137 52.5102 91.7486 51.782C92.1961 51.041 92.7716 50.4788 93.4749 50.0957C94.1911 49.6996 94.952 49.5016 95.7578 49.5016C96.5122 49.5016 97.1708 49.6613 97.7335 49.9807C98.2963 50.3 98.7311 50.7472 99.038 51.3221C99.3576 51.897 99.5175 52.5741 99.5175 53.3533C99.5175 53.7623 99.4792 54.1136 99.4024 54.4074H93.5325C93.5836 55.5061 93.8714 56.3302 94.3957 56.8795C94.9329 57.4288 95.6042 57.7035 96.4099 57.7035C96.9726 57.7035 97.4458 57.5949 97.8295 57.3778C98.2258 57.1477 98.5839 56.8539 98.9036 56.4962L99.46 56.9945C99.0891 57.6971 98.5776 58.2464 97.9254 58.6425C97.2859 59.0258 96.5187 59.2175 95.6234 59.2175ZM111.481 54.4074C111.481 55.57 111.698 56.4388 112.133 57.0136C112.581 57.5758 113.143 57.8568 113.821 57.8568C114.154 57.8568 114.454 57.7929 114.723 57.6651C115.004 57.5247 115.266 57.3267 115.509 57.0712V51.5712C114.946 51.0857 114.39 50.843 113.84 50.843C113.201 50.843 112.645 51.1305 112.171 51.7053C111.711 52.2803 111.481 53.181 111.481 54.4074ZM115.739 59.1599L115.586 57.9526C115.228 58.3615 114.831 58.6745 114.397 58.8916C113.962 59.1088 113.463 59.2175 112.9 59.2175C112.146 59.2175 111.474 59.0258 110.886 58.6425C110.311 58.2592 109.857 57.7099 109.524 56.9945C109.192 56.2791 109.025 55.4294 109.025 54.4457C109.025 53.4365 109.211 52.5613 109.582 51.8204C109.965 51.0794 110.471 50.5108 111.097 50.1148C111.737 49.706 112.434 49.5016 113.188 49.5016C113.674 49.5016 114.109 49.5909 114.493 49.7699C114.889 49.9488 115.26 50.2426 115.605 50.6514V46.7038L114.109 46.5121V45.7648L117.619 44.9023L117.907 45.0749L117.83 47.7768V57.9526L119.077 58.1634V58.9491L115.739 59.1599Z" fill="#023A20"/>
</svg>
