<svg width="23" height="20" viewBox="0 0 23 20" fill="none" xmlns="http://www.w3.org/2000/svg">
<g clip-path="url(#clip0_0_184)">
<path d="M18.9091 2.18103C18.4892 1.71468 17.976 1.34168 17.4029 1.08614C16.8298 0.830598 16.2094 0.698201 15.5819 0.69751C14.3551 0.717246 13.1862 1.22309 12.3319 2.10399C11.4776 2.9849 11.0077 4.16887 11.0254 5.39598C11.0245 5.75615 11.0641 6.11528 11.1433 6.46663C9.3171 6.36641 7.53351 5.87624 5.91248 5.02908C4.29146 4.18193 2.87058 2.99742 1.74538 1.55523C1.33923 2.27794 1.1268 3.09341 1.12872 3.92246C1.12466 4.69026 1.3072 5.44755 1.66063 6.12914C2.01407 6.81074 2.5278 7.39621 3.15762 7.83519C2.43121 7.81141 1.72163 7.6103 1.09074 7.24938V7.30636C1.07875 8.37821 1.4359 9.42155 2.1022 10.2611C2.76851 11.1007 3.70337 11.6853 4.74976 11.9169C4.35974 12.0282 3.956 12.084 3.55041 12.0828C3.26251 12.0828 2.9753 12.0547 2.69287 11.9988C2.9693 12.9216 3.52953 13.7336 4.29391 14.3196C5.05828 14.9056 5.9879 15.2356 6.95057 15.2628C5.35077 16.5649 3.35123 17.276 1.28863 17.2761C0.92454 17.2766 0.560746 17.2553 0.199219 17.2121C2.27039 18.5878 4.70122 19.3218 7.18745 19.3224C15.5729 19.3224 20.1574 12.1588 20.1574 5.9458C20.1574 5.74587 20.1574 5.53693 20.1464 5.337C21.043 4.66792 21.8127 3.84388 22.4192 2.90379C21.5898 3.28314 20.7069 3.53265 19.8016 3.64355C20.7613 3.04715 21.4732 2.12414 21.8065 1.0444C20.9147 1.58993 19.934 1.97465 18.9091 2.18103Z" fill="white"/>
</g>
<defs>
<clipPath id="clip0_0_184">
<rect width="22.22" height="18.63" fill="white" transform="translate(0.199219 0.69458)"/>
</clipPath>
</defs>
</svg>
